<?xml version="1.0" standalone="no"?>
<!DOCTYPE svg PUBLIC "-//W3C//DTD SVG 20010904//EN"
 "http://www.w3.org/TR/2001/REC-SVG-20010904/DTD/svg10.dtd">
<svg version="1.0" xmlns="http://www.w3.org/2000/svg"
 width="817.000000pt" height="544.000000pt" viewBox="0 0 817.000000 544.000000"
 preserveAspectRatio="xMidYMid meet">
<metadata>
Created by potrace 1.16, written by Peter Selinger 2001-2019
</metadata>
<g transform="translate(0.000000,544.000000) scale(0.100000,-0.100000)"
fill="#000000" stroke="none">
<path d="M0 2720 l0 -2720 4085 0 4085 0 0 2720 0 2720 -4085 0 -4085 0 0
-2720z m2671 1820 c229 -168 307 -251 380 -405 39 -84 57 -140 84 -267 l16
-78 855 0 c624 0 861 -3 877 -11 38 -21 56 -52 57 -97 0 -37 -6 -50 -34 -78
l-34 -34 -836 0 -835 0 6 -32 c3 -18 16 -78 28 -133 l22 -100 739 -5 c552 -4
744 -8 760 -17 51 -30 71 -114 38 -162 -36 -51 -31 -51 -785 -51 l-701 0 6
-34 c24 -128 60 -185 141 -222 l50 -24 778 0 c631 0 784 3 810 14 56 23 90 73
115 166 60 228 78 294 141 540 38 146 81 315 96 375 33 127 30 156 -18 185
-31 19 -55 20 -930 20 -986 0 -940 -3 -972 60 -19 37 -19 63 0 100 33 64 -32
60 987 60 841 0 932 -2 970 -17 153 -59 234 -206 203 -366 -6 -34 -42 -179
-79 -322 -38 -143 -99 -379 -137 -523 -41 -157 -80 -284 -96 -313 -56 -103
-170 -181 -290 -199 -87 -12 -1493 -13 -1590 0 -141 18 -273 110 -340 236 -27
51 -51 144 -152 613 -133 614 -143 643 -243 755 -28 32 -106 99 -172 148 -156
117 -174 135 -182 174 -8 43 3 73 38 106 22 20 40 28 68 28 32 0 57 -14 161
-90z m2335 -2158 c49 -26 96 -75 125 -132 32 -64 31 -168 -2 -234 -49 -99
-141 -156 -254 -156 -161 0 -278 116 -278 275 -1 82 16 126 69 185 85 94 227
120 340 62z m-1181 9 c56 -25 101 -66 133 -120 24 -41 27 -56 27 -136 0 -81
-3 -95 -28 -137 -34 -57 -76 -94 -136 -121 -36 -16 -60 -19 -128 -15 -77 4
-87 7 -140 44 -39 27 -66 56 -87 94 -27 49 -31 64 -31 135 0 70 4 87 30 134
31 57 97 114 150 130 54 16 166 12 210 -8z m-2493 -932 c45 -24 48 -51 48
-509 0 -458 -3 -485 -48 -509 -12 -6 -39 -11 -60 -11 -33 0 -45 6 -66 31 l-26
31 0 460 0 460 29 29 c32 31 84 39 123 18z m595 -13 l28 -24 0 -472 0 -472
-28 -24 c-41 -35 -99 -33 -138 5 l-29 29 0 462 0 462 29 29 c39 38 97 40 138
5z m1168 1 c38 -32 38 -92 0 -124 -24 -21 -35 -23 -161 -23 l-134 0 0 -406 0
-406 -29 -29 c-40 -40 -106 -41 -145 -3 l-26 27 0 408 0 409 -134 0 c-127 0
-136 1 -162 24 -21 18 -28 32 -28 61 0 29 7 43 28 61 l27 24 369 0 369 0 26
-23z m520 -2 l25 -24 0 -223 0 -223 233 231 c127 127 243 239 257 248 46 30
103 19 125 -25 25 -47 19 -78 -23 -118 -20 -20 -98 -95 -173 -167 l-137 -131
107 -139 c251 -328 241 -312 241 -354 0 -51 -43 -90 -102 -90 -50 0 -49 0
-238 248 -80 105 -148 191 -151 191 -3 1 -36 -26 -73 -60 l-66 -61 0 -134 c0
-130 -1 -136 -25 -159 -34 -35 -106 -35 -140 0 l-25 24 0 471 0 471 25 24 c18
19 35 25 70 25 35 0 52 -6 70 -25z"/>
</g>
</svg>
